<svg width="3000" height="2001" viewBox="0 0 3000 2001" fill="none" xmlns="http://www.w3.org/2000/svg">
<rect y="0.345215" width="3000" height="2000" rx="130" fill="white"/>
<path d="M1582 382.697L1556.11 462.384L1595.95 475.33L1582 382.697Z" fill="#FFC400"/>
<path d="M1582 382.697L1607.89 462.384L1568.05 475.33L1582 382.697Z" fill="#FFC400"/>
<path d="M1661.69 440.592H1577.9V482.487L1661.69 440.592Z" fill="#FFC400"/>
<path d="M1661.69 440.592L1593.9 489.842L1569.28 455.949L1661.69 440.592Z" fill="#FFC400"/>
<path d="M1631.25 534.271L1605.36 454.583L1565.51 467.529L1631.25 534.271Z" fill="#FFC400"/>
<path d="M1631.25 534.271L1563.46 485.021L1588.09 451.128L1631.25 534.271Z" fill="#FFC400"/>
<path d="M1502.31 440.592H1586.1V482.486L1502.31 440.592Z" fill="#FFC400"/>
<path d="M1502.31 440.592L1570.1 489.842L1594.72 455.949L1502.31 440.592Z" fill="#FFC400"/>
<path d="M1532.75 534.271L1558.64 454.583L1598.49 467.529L1532.75 534.271Z" fill="#FFC400"/>
<path d="M1532.75 534.271L1600.54 485.021L1575.91 451.128L1532.75 534.271Z" fill="#FFC400"/>
<path d="M1417 217.697L1391.11 297.384L1430.95 310.33L1417 217.697Z" fill="#FFC400"/>
<path d="M1417 217.697L1442.89 297.384L1403.05 310.33L1417 217.697Z" fill="#FFC400"/>
<path d="M1496.69 275.592H1412.9V317.487L1496.69 275.592Z" fill="#FFC400"/>
<path d="M1496.69 275.592L1428.9 324.842L1404.28 290.949L1496.69 275.592Z" fill="#FFC400"/>
<path d="M1466.25 369.271L1440.36 289.583L1400.51 302.529L1466.25 369.271Z" fill="#FFC400"/>
<path d="M1466.25 369.271L1398.46 320.021L1423.09 286.128L1466.25 369.271Z" fill="#FFC400"/>
<path d="M1337.31 275.592H1421.1V317.486L1337.31 275.592Z" fill="#FFC400"/>
<path d="M1337.31 275.592L1405.1 324.842L1429.72 290.949L1337.31 275.592Z" fill="#FFC400"/>
<path d="M1367.75 369.271L1393.64 289.583L1433.49 302.529L1367.75 369.271Z" fill="#FFC400"/>
<path d="M1367.75 369.271L1435.54 320.021L1410.91 286.128L1367.75 369.271Z" fill="#FFC400"/>
<path d="M1192 157.697L1166.11 237.384L1205.95 250.33L1192 157.697Z" fill="#FFC400"/>
<path d="M1192 157.697L1217.89 237.384L1178.05 250.33L1192 157.697Z" fill="#FFC400"/>
<path d="M1271.69 215.592H1187.9V257.487L1271.69 215.592Z" fill="#FFC400"/>
<path d="M1271.69 215.592L1203.9 264.842L1179.28 230.949L1271.69 215.592Z" fill="#FFC400"/>
<path d="M1241.25 309.271L1215.36 229.583L1175.51 242.529L1241.25 309.271Z" fill="#FFC400"/>
<path d="M1241.25 309.271L1173.46 260.021L1198.09 226.128L1241.25 309.271Z" fill="#FFC400"/>
<path d="M1112.31 215.592H1196.1V257.486L1112.31 215.592Z" fill="#FFC400"/>
<path d="M1112.31 215.592L1180.1 264.842L1204.72 230.949L1112.31 215.592Z" fill="#FFC400"/>
<path d="M1142.75 309.271L1168.64 229.583L1208.49 242.529L1142.75 309.271Z" fill="#FFC400"/>
<path d="M1142.75 309.271L1210.54 260.021L1185.91 226.128L1142.75 309.271Z" fill="#FFC400"/>
<path d="M967 217.697L941.108 297.384L980.951 310.33L967 217.697Z" fill="#FFC400"/>
<path d="M967 217.697L992.892 297.384L953.048 310.33L967 217.697Z" fill="#FFC400"/>
<path d="M1046.69 275.592H962.899V317.487L1046.69 275.592Z" fill="#FFC400"/>
<path d="M1046.69 275.592L978.901 324.842L954.277 290.949L1046.69 275.592Z" fill="#FFC400"/>
<path d="M1016.25 369.271L990.358 289.583L950.514 302.529L1016.25 369.271Z" fill="#FFC400"/>
<path d="M1016.25 369.271L948.463 320.021L973.088 286.128L1016.25 369.271Z" fill="#FFC400"/>
<path d="M887.312 275.592H971.101V317.486L887.312 275.592Z" fill="#FFC400"/>
<path d="M887.312 275.592L955.099 324.842L979.724 290.949L887.312 275.592Z" fill="#FFC400"/>
<path d="M917.75 369.271L943.642 289.583L983.486 302.529L917.75 369.271Z" fill="#FFC400"/>
<path d="M917.75 369.271L985.537 320.021L960.912 286.128L917.75 369.271Z" fill="#FFC400"/>
<path d="M803 382.697L777.108 462.384L816.951 475.33L803 382.697Z" fill="#FFC400"/>
<path d="M803 382.697L828.892 462.384L789.048 475.33L803 382.697Z" fill="#FFC400"/>
<path d="M882.688 440.592H798.899V482.487L882.688 440.592Z" fill="#FFC400"/>
<path d="M882.688 440.592L814.901 489.842L790.277 455.949L882.688 440.592Z" fill="#FFC400"/>
<path d="M852.25 534.271L826.358 454.583L786.514 467.529L852.25 534.271Z" fill="#FFC400"/>
<path d="M852.25 534.271L784.463 485.021L809.088 451.128L852.25 534.271Z" fill="#FFC400"/>
<path d="M723.312 440.592H807.101V482.486L723.312 440.592Z" fill="#FFC400"/>
<path d="M723.312 440.592L791.099 489.842L815.724 455.949L723.312 440.592Z" fill="#FFC400"/>
<path d="M753.75 534.271L779.642 454.583L819.486 467.529L753.75 534.271Z" fill="#FFC400"/>
<path d="M753.75 534.271L821.537 485.021L796.912 451.128L753.75 534.271Z" fill="#FFC400"/>
<path d="M742 607.697L716.108 687.384L755.951 700.33L742 607.697Z" fill="#FFC400"/>
<path d="M742 607.697L767.892 687.384L728.048 700.33L742 607.697Z" fill="#FFC400"/>
<path d="M821.688 665.592H737.899V707.487L821.688 665.592Z" fill="#FFC400"/>
<path d="M821.688 665.592L753.901 714.842L729.277 680.949L821.688 665.592Z" fill="#FFC400"/>
<path d="M791.25 759.271L765.358 679.583L725.514 692.529L791.25 759.271Z" fill="#FFC400"/>
<path d="M791.25 759.271L723.463 710.021L748.088 676.128L791.25 759.271Z" fill="#FFC400"/>
<path d="M662.312 665.592H746.101V707.486L662.312 665.592Z" fill="#FFC400"/>
<path d="M662.312 665.592L730.099 714.842L754.724 680.949L662.312 665.592Z" fill="#FFC400"/>
<path d="M692.75 759.271L718.642 679.583L758.486 692.529L692.75 759.271Z" fill="#FFC400"/>
<path d="M692.75 759.271L760.537 710.021L735.912 676.128L692.75 759.271Z" fill="#FFC400"/>
<path d="M802 832.697L776.108 912.384L815.951 925.33L802 832.697Z" fill="#FFC400"/>
<path d="M802 832.697L827.892 912.384L788.048 925.33L802 832.697Z" fill="#FFC400"/>
<path d="M881.688 890.592H797.899V932.487L881.688 890.592Z" fill="#FFC400"/>
<path d="M881.688 890.592L813.901 939.842L789.277 905.949L881.688 890.592Z" fill="#FFC400"/>
<path d="M851.25 984.271L825.358 904.583L785.514 917.529L851.25 984.271Z" fill="#FFC400"/>
<path d="M851.25 984.271L783.463 935.021L808.088 901.128L851.25 984.271Z" fill="#FFC400"/>
<path d="M722.312 890.592H806.101V932.486L722.312 890.592Z" fill="#FFC400"/>
<path d="M722.312 890.592L790.099 939.842L814.724 905.949L722.312 890.592Z" fill="#FFC400"/>
<path d="M752.75 984.271L778.642 904.583L818.486 917.529L752.75 984.271Z" fill="#FFC400"/>
<path d="M752.75 984.271L820.537 935.021L795.912 901.128L752.75 984.271Z" fill="#FFC400"/>
<path d="M967 997.697L941.108 1077.38L980.951 1090.33L967 997.697Z" fill="#FFC400"/>
<path d="M967 997.697L992.892 1077.38L953.048 1090.33L967 997.697Z" fill="#FFC400"/>
<path d="M1046.69 1055.59H962.899V1097.49L1046.69 1055.59Z" fill="#FFC400"/>
<path d="M1046.69 1055.59L978.901 1104.84L954.277 1070.95L1046.69 1055.59Z" fill="#FFC400"/>
<path d="M1016.25 1149.27L990.358 1069.58L950.514 1082.53L1016.25 1149.27Z" fill="#FFC400"/>
<path d="M1016.25 1149.27L948.463 1100.02L973.088 1066.13L1016.25 1149.27Z" fill="#FFC400"/>
<path d="M887.312 1055.59H971.101V1097.49L887.312 1055.59Z" fill="#FFC400"/>
<path d="M887.312 1055.59L955.099 1104.84L979.724 1070.95L887.312 1055.59Z" fill="#FFC400"/>
<path d="M917.75 1149.27L943.642 1069.58L983.486 1082.53L917.75 1149.27Z" fill="#FFC400"/>
<path d="M917.75 1149.27L985.537 1100.02L960.912 1066.13L917.75 1149.27Z" fill="#FFC400"/>
<path d="M1192 1057.7L1166.11 1137.38L1205.95 1150.33L1192 1057.7Z" fill="#FFC400"/>
<path d="M1192 1057.7L1217.89 1137.38L1178.05 1150.33L1192 1057.7Z" fill="#FFC400"/>
<path d="M1271.69 1115.59H1187.9V1157.49L1271.69 1115.59Z" fill="#FFC400"/>
<path d="M1271.69 1115.59L1203.9 1164.84L1179.28 1130.95L1271.69 1115.59Z" fill="#FFC400"/>
<path d="M1241.25 1209.27L1215.36 1129.58L1175.51 1142.53L1241.25 1209.27Z" fill="#FFC400"/>
<path d="M1241.25 1209.27L1173.46 1160.02L1198.09 1126.13L1241.25 1209.27Z" fill="#FFC400"/>
<path d="M1112.31 1115.59H1196.1V1157.49L1112.31 1115.59Z" fill="#FFC400"/>
<path d="M1112.31 1115.59L1180.1 1164.84L1204.72 1130.95L1112.31 1115.59Z" fill="#FFC400"/>
<path d="M1142.75 1209.27L1168.64 1129.58L1208.49 1142.53L1142.75 1209.27Z" fill="#FFC400"/>
<path d="M1142.75 1209.27L1210.54 1160.02L1185.91 1126.13L1142.75 1209.27Z" fill="#FFC400"/>
<path d="M1418 996.697L1392.11 1076.38L1431.95 1089.33L1418 996.697Z" fill="#FFC400"/>
<path d="M1418 996.697L1443.89 1076.38L1404.05 1089.33L1418 996.697Z" fill="#FFC400"/>
<path d="M1497.69 1054.59H1413.9V1096.49L1497.69 1054.59Z" fill="#FFC400"/>
<path d="M1497.69 1054.59L1429.9 1103.84L1405.28 1069.95L1497.69 1054.59Z" fill="#FFC400"/>
<path d="M1467.25 1148.27L1441.36 1068.58L1401.51 1081.53L1467.25 1148.27Z" fill="#FFC400"/>
<path d="M1467.25 1148.27L1399.46 1099.02L1424.09 1065.13L1467.25 1148.27Z" fill="#FFC400"/>
<path d="M1338.31 1054.59H1422.1V1096.49L1338.31 1054.59Z" fill="#FFC400"/>
<path d="M1338.31 1054.59L1406.1 1103.84L1430.72 1069.95L1338.31 1054.59Z" fill="#FFC400"/>
<path d="M1368.75 1148.27L1394.64 1068.58L1434.49 1081.53L1368.75 1148.27Z" fill="#FFC400"/>
<path d="M1368.75 1148.27L1436.54 1099.02L1411.91 1065.13L1368.75 1148.27Z" fill="#FFC400"/>
<path d="M1582 831.697L1556.11 911.384L1595.95 924.33L1582 831.697Z" fill="#FFC400"/>
<path d="M1582 831.697L1607.89 911.384L1568.05 924.33L1582 831.697Z" fill="#FFC400"/>
<path d="M1661.69 889.592H1577.9V931.487L1661.69 889.592Z" fill="#FFC400"/>
<path d="M1661.69 889.592L1593.9 938.842L1569.28 904.949L1661.69 889.592Z" fill="#FFC400"/>
<path d="M1631.25 983.271L1605.36 903.583L1565.51 916.529L1631.25 983.271Z" fill="#FFC400"/>
<path d="M1631.25 983.271L1563.46 934.021L1588.09 900.128L1631.25 983.271Z" fill="#FFC400"/>
<path d="M1502.31 889.592H1586.1V931.486L1502.31 889.592Z" fill="#FFC400"/>
<path d="M1502.31 889.592L1570.1 938.842L1594.72 904.949L1502.31 889.592Z" fill="#FFC400"/>
<path d="M1532.75 983.271L1558.64 903.583L1598.49 916.529L1532.75 983.271Z" fill="#FFC400"/>
<path d="M1532.75 983.271L1600.54 934.021L1575.91 900.128L1532.75 983.271Z" fill="#FFC400"/>
<path d="M1807 771.697L1781.11 851.384L1820.95 864.33L1807 771.697Z" fill="#FFC400"/>
<path d="M1807 771.697L1832.89 851.384L1793.05 864.33L1807 771.697Z" fill="#FFC400"/>
<path d="M1886.69 829.592H1802.9V871.487L1886.69 829.592Z" fill="#FFC400"/>
<path d="M1886.69 829.592L1818.9 878.842L1794.28 844.949L1886.69 829.592Z" fill="#FFC400"/>
<path d="M1856.25 923.271L1830.36 843.583L1790.51 856.529L1856.25 923.271Z" fill="#FFC400"/>
<path d="M1856.25 923.271L1788.46 874.021L1813.09 840.128L1856.25 923.271Z" fill="#FFC400"/>
<path d="M1727.31 829.592H1811.1V871.486L1727.31 829.592Z" fill="#FFC400"/>
<path d="M1727.31 829.592L1795.1 878.842L1819.72 844.949L1727.31 829.592Z" fill="#FFC400"/>
<path d="M1757.75 923.271L1783.64 843.583L1823.49 856.529L1757.75 923.271Z" fill="#FFC400"/>
<path d="M1757.75 923.271L1825.54 874.021L1800.91 840.128L1757.75 923.271Z" fill="#FFC400"/>
<path d="M2032 831.697L2006.11 911.384L2045.95 924.33L2032 831.697Z" fill="#FFC400"/>
<path d="M2032 831.697L2057.89 911.384L2018.05 924.33L2032 831.697Z" fill="#FFC400"/>
<path d="M2111.69 889.592H2027.9V931.487L2111.69 889.592Z" fill="#FFC400"/>
<path d="M2111.69 889.592L2043.9 938.842L2019.28 904.949L2111.69 889.592Z" fill="#FFC400"/>
<path d="M2081.25 983.271L2055.36 903.583L2015.51 916.529L2081.25 983.271Z" fill="#FFC400"/>
<path d="M2081.25 983.271L2013.46 934.021L2038.09 900.128L2081.25 983.271Z" fill="#FFC400"/>
<path d="M1952.31 889.592H2036.1V931.486L1952.31 889.592Z" fill="#FFC400"/>
<path d="M1952.31 889.592L2020.1 938.842L2044.72 904.949L1952.31 889.592Z" fill="#FFC400"/>
<path d="M1982.75 983.271L2008.64 903.583L2048.49 916.529L1982.75 983.271Z" fill="#FFC400"/>
<path d="M1982.75 983.271L2050.54 934.021L2025.91 900.128L1982.75 983.271Z" fill="#FFC400"/>
<path d="M2197 996.697L2171.11 1076.38L2210.95 1089.33L2197 996.697Z" fill="#FFC400"/>
<path d="M2197 996.697L2222.89 1076.38L2183.05 1089.33L2197 996.697Z" fill="#FFC400"/>
<path d="M2276.69 1054.59H2192.9V1096.49L2276.69 1054.59Z" fill="#FFC400"/>
<path d="M2276.69 1054.59L2208.9 1103.84L2184.28 1069.95L2276.69 1054.59Z" fill="#FFC400"/>
<path d="M2246.25 1148.27L2220.36 1068.58L2180.51 1081.53L2246.25 1148.27Z" fill="#FFC400"/>
<path d="M2246.25 1148.27L2178.46 1099.02L2203.09 1065.13L2246.25 1148.27Z" fill="#FFC400"/>
<path d="M2117.31 1054.59H2201.1V1096.49L2117.31 1054.59Z" fill="#FFC400"/>
<path d="M2117.31 1054.59L2185.1 1103.84L2209.72 1069.95L2117.31 1054.59Z" fill="#FFC400"/>
<path d="M2147.75 1148.27L2173.64 1068.58L2213.49 1081.53L2147.75 1148.27Z" fill="#FFC400"/>
<path d="M2147.75 1148.27L2215.54 1099.02L2190.91 1065.13L2147.75 1148.27Z" fill="#FFC400"/>
<path d="M2257 1221.7L2231.11 1301.38L2270.95 1314.33L2257 1221.7Z" fill="#FFC400"/>
<path d="M2257 1221.7L2282.89 1301.38L2243.05 1314.33L2257 1221.7Z" fill="#FFC400"/>
<path d="M2336.69 1279.59H2252.9V1321.49L2336.69 1279.59Z" fill="#FFC400"/>
<path d="M2336.69 1279.59L2268.9 1328.84L2244.28 1294.95L2336.69 1279.59Z" fill="#FFC400"/>
<path d="M2306.25 1373.27L2280.36 1293.58L2240.51 1306.53L2306.25 1373.27Z" fill="#FFC400"/>
<path d="M2306.25 1373.27L2238.46 1324.02L2263.09 1290.13L2306.25 1373.27Z" fill="#FFC400"/>
<path d="M2177.31 1279.59H2261.1V1321.49L2177.31 1279.59Z" fill="#FFC400"/>
<path d="M2177.31 1279.59L2245.1 1328.84L2269.72 1294.95L2177.31 1279.59Z" fill="#FFC400"/>
<path d="M2207.75 1373.27L2233.64 1293.58L2273.49 1306.53L2207.75 1373.27Z" fill="#FFC400"/>
<path d="M2207.75 1373.27L2275.54 1324.02L2250.91 1290.13L2207.75 1373.27Z" fill="#FFC400"/>
<path d="M2197 1446.7L2171.11 1526.38L2210.95 1539.33L2197 1446.7Z" fill="#FFC400"/>
<path d="M2197 1446.7L2222.89 1526.38L2183.05 1539.33L2197 1446.7Z" fill="#FFC400"/>
<path d="M2276.69 1504.59H2192.9V1546.49L2276.69 1504.59Z" fill="#FFC400"/>
<path d="M2276.69 1504.59L2208.9 1553.84L2184.28 1519.95L2276.69 1504.59Z" fill="#FFC400"/>
<path d="M2246.25 1598.27L2220.36 1518.58L2180.51 1531.53L2246.25 1598.27Z" fill="#FFC400"/>
<path d="M2246.25 1598.27L2178.46 1549.02L2203.09 1515.13L2246.25 1598.27Z" fill="#FFC400"/>
<path d="M2117.31 1504.59H2201.1V1546.49L2117.31 1504.59Z" fill="#FFC400"/>
<path d="M2117.31 1504.59L2185.1 1553.84L2209.72 1519.95L2117.31 1504.59Z" fill="#FFC400"/>
<path d="M2147.75 1598.27L2173.64 1518.58L2213.49 1531.53L2147.75 1598.27Z" fill="#FFC400"/>
<path d="M2147.75 1598.27L2215.54 1549.02L2190.91 1515.13L2147.75 1598.27Z" fill="#FFC400"/>
<path d="M2032 1610.7L2006.11 1690.38L2045.95 1703.33L2032 1610.7Z" fill="#FFC400"/>
<path d="M2032 1610.7L2057.89 1690.38L2018.05 1703.33L2032 1610.7Z" fill="#FFC400"/>
<path d="M2111.69 1668.59H2027.9V1710.49L2111.69 1668.59Z" fill="#FFC400"/>
<path d="M2111.69 1668.59L2043.9 1717.84L2019.28 1683.95L2111.69 1668.59Z" fill="#FFC400"/>
<path d="M2081.25 1762.27L2055.36 1682.58L2015.51 1695.53L2081.25 1762.27Z" fill="#FFC400"/>
<path d="M2081.25 1762.27L2013.46 1713.02L2038.09 1679.13L2081.25 1762.27Z" fill="#FFC400"/>
<path d="M1952.31 1668.59H2036.1V1710.49L1952.31 1668.59Z" fill="#FFC400"/>
<path d="M1952.31 1668.59L2020.1 1717.84L2044.72 1683.95L1952.31 1668.59Z" fill="#FFC400"/>
<path d="M1982.75 1762.27L2008.64 1682.58L2048.49 1695.53L1982.75 1762.27Z" fill="#FFC400"/>
<path d="M1982.75 1762.27L2050.54 1713.02L2025.91 1679.13L1982.75 1762.27Z" fill="#FFC400"/>
<path d="M1807 1671.7L1781.11 1751.38L1820.95 1764.33L1807 1671.7Z" fill="#FFC400"/>
<path d="M1807 1671.7L1832.89 1751.38L1793.05 1764.33L1807 1671.7Z" fill="#FFC400"/>
<path d="M1886.69 1729.59H1802.9V1771.49L1886.69 1729.59Z" fill="#FFC400"/>
<path d="M1886.69 1729.59L1818.9 1778.84L1794.28 1744.95L1886.69 1729.59Z" fill="#FFC400"/>
<path d="M1856.25 1823.27L1830.36 1743.58L1790.51 1756.53L1856.25 1823.27Z" fill="#FFC400"/>
<path d="M1856.25 1823.27L1788.46 1774.02L1813.09 1740.13L1856.25 1823.27Z" fill="#FFC400"/>
<path d="M1727.31 1729.59H1811.1V1771.49L1727.31 1729.59Z" fill="#FFC400"/>
<path d="M1727.31 1729.59L1795.1 1778.84L1819.72 1744.95L1727.31 1729.59Z" fill="#FFC400"/>
<path d="M1757.75 1823.27L1783.64 1743.58L1823.49 1756.53L1757.75 1823.27Z" fill="#FFC400"/>
<path d="M1757.75 1823.27L1825.54 1774.02L1800.91 1740.13L1757.75 1823.27Z" fill="#FFC400"/>
<path d="M1582 1611.7L1556.11 1691.38L1595.95 1704.33L1582 1611.7Z" fill="#FFC400"/>
<path d="M1582 1611.7L1607.89 1691.38L1568.05 1704.33L1582 1611.7Z" fill="#FFC400"/>
<path d="M1661.69 1669.59H1577.9V1711.49L1661.69 1669.59Z" fill="#FFC400"/>
<path d="M1661.69 1669.59L1593.9 1718.84L1569.28 1684.95L1661.69 1669.59Z" fill="#FFC400"/>
<path d="M1631.25 1763.27L1605.36 1683.58L1565.51 1696.53L1631.25 1763.27Z" fill="#FFC400"/>
<path d="M1631.25 1763.27L1563.46 1714.02L1588.09 1680.13L1631.25 1763.27Z" fill="#FFC400"/>
<path d="M1502.31 1669.59H1586.1V1711.49L1502.31 1669.59Z" fill="#FFC400"/>
<path d="M1502.31 1669.59L1570.1 1718.84L1594.72 1684.95L1502.31 1669.59Z" fill="#FFC400"/>
<path d="M1532.75 1763.27L1558.64 1683.58L1598.49 1696.53L1532.75 1763.27Z" fill="#FFC400"/>
<path d="M1532.75 1763.27L1600.54 1714.02L1575.91 1680.13L1532.75 1763.27Z" fill="#FFC400"/>
<path d="M1417 1446.7L1391.11 1526.38L1430.95 1539.33L1417 1446.7Z" fill="#FFC400"/>
<path d="M1417 1446.7L1442.89 1526.38L1403.05 1539.33L1417 1446.7Z" fill="#FFC400"/>
<path d="M1496.69 1504.59H1412.9V1546.49L1496.69 1504.59Z" fill="#FFC400"/>
<path d="M1496.69 1504.59L1428.9 1553.84L1404.28 1519.95L1496.69 1504.59Z" fill="#FFC400"/>
<path d="M1466.25 1598.27L1440.36 1518.58L1400.51 1531.53L1466.25 1598.27Z" fill="#FFC400"/>
<path d="M1466.25 1598.27L1398.46 1549.02L1423.09 1515.13L1466.25 1598.27Z" fill="#FFC400"/>
<path d="M1337.31 1504.59H1421.1V1546.49L1337.31 1504.59Z" fill="#FFC400"/>
<path d="M1337.31 1504.59L1405.1 1553.84L1429.72 1519.95L1337.31 1504.59Z" fill="#FFC400"/>
<path d="M1367.75 1598.27L1393.64 1518.58L1433.49 1531.53L1367.75 1598.27Z" fill="#FFC400"/>
<path d="M1367.75 1598.27L1435.54 1549.02L1410.91 1515.13L1367.75 1598.27Z" fill="#FFC400"/>
</svg>
